<?xml version="1.0" encoding="UTF-8"?>
<svg id="Layer_1" data-name="Layer 1" xmlns="http://www.w3.org/2000/svg" viewBox="0 0 720 720">
  <defs>
    <style>
      .cls-1 {
        fill: #f15f4f;
      }
    </style>
  </defs>
  <g>
    <path class="cls-1" d="M215.33,416.26l13.27-12.25c5.75-5.31,14.08-5.23,21.38-3.05,16.3,4.88,32.48-2.15,39.16-18.4,2.95-7.19,3.67-16.32,5.21-22.18-8.39,18.4-21.61,39.11-44.82,29.76-8.41-3.39-17.96-1.5-24.22,5.02l-13.94,14.51c-5.64,5.87-12.64,5.94-20.78,3.36,7.19,6.81,17.37,10.02,24.74,3.22Z"/>
    <path class="cls-1" d="M217.16,392.7c3.57-1.58,1.96-8.59,1.96-8.59,0,0-1.56.57-3.17,1.32-14.2,6.59-24.53,15.85-36.52,8.99-3.22-1.84-6.98-5.2-8.56-8.87-.09-.21-.17-.35-.22-.39,2.05,16.61,18.83,20.4,30.31,15.42,0,0,12.16-6.08,16.21-7.87Z"/>
    <path class="cls-1" d="M230.83,340.56c1.73,0,3.47-.58,4.37-.87,7.24-2.4,10.67-10.41,12.07-14.97.14-.44,0-.9-.33-1.21-.34-.31-.83-.39-1.25-.22-1.83.76-3.73,1.39-5.58,2-3.34,1.11-6.79,2.25-10.08,4.22-2.28,1.36-3.73,3.61-3.87,6.02-.09,1.49.28,2.75,1.08,3.64h0c.94,1.05,2.26,1.39,3.59,1.39Z"/>
    <path class="cls-1" d="M163.78,370.63s.05,0,.07,0c3.14,0,13.93-9.12,18-13.03,1.5-1.43,2.38-2.37,1.97-3.3-.1-.23-.42-.74-1.34-.69-4.49.27-11.61.44-14.55-.11,1.15-1.95,6.76-8.18,24.2-19.39,6.17-3.97,11.61-10.12,17.36-16.63,12.27-13.89,26.17-29.63,53.73-33.98l12.6-2.22-6.24-.74c-9.19-1.08-19.08.26-30.23,4.09-15.32,5.27-25.85,13.64-29.66,17.75-.9.98-1.65,1.78-2.29,2.47q-3.77,4.05-9.34,11.12l-3.05,3.88c-4.22,5.35-9.56,9.98-14.73,14.45-5.22,4.52-10.62,9.2-14.68,14.52-2.5,3.28-4.03,5.92-4.55,7.86-.71,2.64-1.97,9.24,1.72,13.49.17.2.48.43,1,.46Z"/>
    <path class="cls-1" d="M333.31,340.87s-5.79-23.95-22.85-42.44c2.74-5.61,3.63-12.83,1.26-18.84-3.39-8.4-12.99-14.94-22.15-12.32-7.38,2.04-12.4,9.04-12.32,16.26,5.53-7.53,15.29-12.19,22.24-4.25,1.37,1.48,2.48,2.99,3.1,4.87,3.02,9.63-2.33,20.1-6.77,28.75,3.81-1.74,7.17-4.29,9.94-7.43,5.38,6.11,28.66,35.69,17.5,78.58-6.66,19.95-20.17,37.5-38.89,48.08-17.94,10.72-38.03,13.65-58.58,10.71-11.06-2.22-21.91-5.99-32.76-9.26-21.71-6.74-36.29-13.03-58.87-3.34,23.61-5.62,35.4,1.65,56.43,10.11,10.99,4.34,21.86,8.92,33.41,11.8,22.91,4.49,45.71,1.52,65.94-10.44,34.86-19.65,52.96-62.06,43.37-100.83Z"/>
  </g>
  <g>
    <path class="cls-1" d="M520.44,392.68c1.64-21.58,17.6-38.16,39.34-36.5,17.36,1.32,26.99,14.3,25.86,31.19-1.56,22.57-17.6,38.16-38.53,36.56-17.53-1.34-27.77-14.69-26.67-31.25ZM574.77,386.54c.7-11.37-4.97-20.46-16.49-21.33-14.93-1.14-25.69,11.59-26.93,27.82-.9,11.85,5.1,20.95,16.62,21.83,14.28,1.09,25.51-11.28,26.8-28.32Z"/>
    <path class="cls-1" d="M485,355.71c13.02,0,20.02,8.14,20.02,17.09,0,13.18-14.97,25.71-41.34,27.99,3.42,9.28,12.53,14.48,24.9,14.48s24.9-6.51,32.87-22.95l7.65,3.74c-8.79,17.74-22.95,28.32-41.99,28.32-21.48,0-35.48-11.88-35.48-31.74,0-18.55,12.69-36.94,33.36-36.94ZM494.77,373.29c0-5.05-4.07-8.63-9.77-8.63-13.51,0-22.78,13.83-22.78,27.67v.65c21.32-1.14,32.55-10.74,32.55-19.69Z"/>
    <path class="cls-1" d="M517.62,426.67c-8.67,6.74-22.51,15.82-52.6,10.6-22.19-4.91-40.46-16.6-46.96-21.86,8.1-12.17,14.69-27.37,22.3-45.87,8.87-21.8,11.66-29.4,14.94-37.25,19.01-4.31,55.76-16.98,55.76-42.83,0-8.61-6.33-15.46-15.71-15.46-23.5,0-37.93,27.97-46.81,49.23-5.43.77-10.39,1.51-16.37,1.47-13.06-.08-53.61-4.98-61.93-27.81h0c12.87,36.48,57.71,38.86,70.18,37.61.04,0,2.48-.19,3.45-.32-2.77,8.28-5.06,12.64-12.37,31.56-6.08,15.97-13.18,31.17-21.8,44.1-9.89-6.34-21.79-12.42-34.72-12.42-15.97,0-29.4,8.87-29.4,25.34,0,13.69,10.64,23.32,24.84,23.32,16.22,0,30.91-10.14,41.81-22.81,7.86,5.45,15.4,10.64,23.06,14.23,12.38,5.8,26.61,7.95,31.44,8.63,38.37,5.09,50.9-19.45,50.9-19.45h0ZM495.35,283.89c3.04,0,5.82,1.77,5.82,5.32,0,16.47-24.83,26.61-40.8,31.17,6.59-14.19,18.76-36.49,34.98-36.49ZM370.15,436.19c-7.35,0-14.69-4.81-14.69-13.18,0-9.88,9.12-15.71,19.01-15.71,10.64.51,20.78,5.07,29.65,10.64-8.36,9.38-20.27,18.24-33.96,18.24Z"/>
  </g>
</svg>